<svg width="99" height="32" viewBox="0 0 99 32" fill="none" xmlns="http://www.w3.org/2000/svg">
<path d="M80.8237 1.38031C80.8237 1.58478 80.7786 1.76372 80.6902 1.9171C80.5999 2.05767 80.4782 2.17909 80.3251 2.28133C80.1837 2.38359 80.0189 2.47304 79.8265 2.54972C79.6478 2.6264 79.4633 2.6967 79.2709 2.7606C79.2964 2.86286 79.3161 2.96509 79.3278 3.06733C79.3416 3.15681 79.3475 3.25265 79.3475 3.35491C79.3475 3.815 79.1944 4.24955 78.8881 4.65852C78.5937 5.06749 78.2619 5.43814 77.8908 5.77044C77.8398 5.96213 77.775 6.15385 77.6985 6.34556C77.6219 6.52448 77.5316 6.70342 77.4295 6.88233V6.86318C77.3274 7.06765 77.2391 7.27215 77.1626 7.47664C77.086 7.68112 77.0016 7.87921 76.9132 8.07093C76.8229 8.26265 76.7149 8.44156 76.5873 8.60772C76.4715 8.76108 76.3125 8.88889 76.1084 8.99113C75.8905 9.37454 75.6667 9.76436 75.437 10.1605C75.2191 10.544 74.9757 10.9338 74.7087 11.33C74.7205 11.3555 74.7342 11.3875 74.746 11.4258C74.7597 11.4514 74.7656 11.4897 74.7656 11.5409C74.7656 11.7454 74.7146 11.9243 74.6125 12.0776C74.5222 12.231 74.4142 12.378 74.2866 12.5186V12.4994C74.21 12.6016 74.1335 12.6975 74.0569 12.787C73.9922 12.8764 73.947 12.9787 73.9215 13.0937C73.6035 13.3749 73.3659 13.6433 73.2128 13.8989C73.0597 14.1545 72.9183 14.4101 72.7907 14.6657C72.6749 14.9085 72.5414 15.1578 72.3883 15.4134C72.2352 15.6562 71.9917 15.9182 71.66 16.1994V16.3336C71.66 16.4869 71.6089 16.6787 71.5069 16.9087C71.4166 17.1387 71.3027 17.3752 71.1614 17.618C71.02 17.8481 70.8669 18.0718 70.702 18.2891C70.5351 18.5062 70.3879 18.6788 70.2603 18.8066V18.845C70.2603 19.2412 70.1327 19.6181 69.8775 19.976C69.6223 20.3338 69.3337 20.6597 69.0137 20.9538C68.9117 21.0433 68.8351 21.1454 68.7841 21.2604C68.733 21.3755 68.682 21.497 68.6309 21.6248C68.5799 21.7398 68.523 21.8611 68.4582 21.9889C68.3954 22.104 68.305 22.2062 68.1892 22.2958C68.1519 22.6152 68.095 22.8965 68.0165 23.1393C67.9399 23.3821 67.8516 23.6185 67.7495 23.8486C67.6592 24.0659 67.5512 24.283 67.4236 24.5003C67.3078 24.7176 67.1743 24.954 67.0212 25.2096L66.8288 25.4972C66.8033 25.6507 66.7012 25.8806 66.5225 26.1874C66.3557 26.4813 66.1574 26.7944 65.9277 27.1267C65.7098 27.4591 65.4861 27.785 65.2564 28.1046C65.0267 28.4112 64.8343 28.6478 64.6812 28.8138C64.6557 28.9544 64.585 29.1717 64.4711 29.4656C64.369 29.7467 64.2277 30.028 64.0491 30.3091C63.8704 30.603 63.6525 30.8588 63.3973 31.0759C63.1421 31.2932 62.8476 31.4018 62.5159 31.4018C62.2469 31.4018 61.9976 31.338 61.7679 31.2102C61.55 31.0951 61.3655 30.9418 61.2124 30.75C61.0593 30.5712 60.9376 30.3731 60.8473 30.1558C60.7707 29.9385 60.7334 29.7277 60.7334 29.5231C60.7334 29.1525 60.8276 28.8201 61.02 28.5262C61.2124 28.2324 61.4283 27.951 61.6718 27.6827C61.978 27.3248 62.2214 26.9989 62.4001 26.7051C62.5787 26.3982 62.7966 26.1364 63.0518 25.919C63.1421 25.8168 63.2246 25.7017 63.3011 25.5739C63.3914 25.4461 63.4935 25.2928 63.6074 25.1138C63.7232 24.9222 63.8645 24.6984 64.0294 24.4428C64.1963 24.1872 64.4063 23.8806 64.6615 23.5227C64.9815 23.1008 65.2564 22.7174 65.486 22.3723C65.7295 22.0274 65.9474 21.6951 66.1378 21.3755C66.3302 21.0433 66.5088 20.711 66.6757 20.3786C66.8543 20.0335 67.033 19.6566 67.2116 19.2475C67.353 18.9281 67.5316 18.6022 67.7495 18.2698C67.9654 17.9248 68.1833 17.5989 68.4012 17.2921C68.6172 16.9726 68.8155 16.6659 68.9961 16.3719C69.1865 16.078 69.3219 15.8096 69.3985 15.5667H69.3789C69.4162 15.4389 69.4496 15.3175 69.4751 15.2025C69.5124 15.0747 69.5772 14.9405 69.6655 14.7999V14.8191C69.8068 14.5762 69.9148 14.4101 69.9914 14.3206V14.3398C70.0679 14.2376 70.1327 14.1417 70.1837 14.0522C70.2485 13.9628 70.2799 13.8541 70.2799 13.7263V13.5155C70.3938 13.426 70.5351 13.2598 70.702 13.017C70.8669 12.7614 71.02 12.493 71.1614 12.2118C71.3145 11.9179 71.4421 11.6367 71.5441 11.3683C71.66 11.0871 71.7169 10.8763 71.7169 10.7357C72.1017 10.4034 72.3883 10.0328 72.5807 9.62378C72.7849 9.21479 72.9576 8.8186 73.097 8.43518C73.2756 7.92395 73.4817 7.45746 73.7114 7.03571C73.9548 6.60116 74.21 6.15385 74.477 5.69374L74.6498 5.36785C74.7008 5.29117 74.7597 5.22087 74.8225 5.15697C74.8991 5.08027 74.9756 5.00359 75.0522 4.92691C75.0777 4.90135 75.1563 4.79272 75.2839 4.601C75.4115 4.4093 75.5449 4.17925 75.6863 3.91085C75.8394 3.64246 75.9788 3.36129 76.1084 3.06733C76.2477 2.7606 76.3302 2.48582 76.3577 2.24299C76.446 2.19187 76.5422 2.09601 76.6443 1.95543C76.7601 1.80206 76.8622 1.6423 76.9505 1.47616C77.0408 1.31001 77.1174 1.15025 77.1802 0.996894C77.245 0.843517 77.2764 0.728499 77.2764 0.651801C77.5198 0.575122 77.673 0.511224 77.7377 0.460105C77.8143 0.408986 77.883 0.364247 77.9478 0.325905H77.9282C78.0558 0.236441 78.1912 0.159757 78.3306 0.0958541C78.4837 0.0319514 78.7212 0 79.0412 0C79.5261 0 79.9423 0.121416 80.2858 0.364247C80.6451 0.607082 80.8237 0.945755 80.8237 1.38031ZM84.9443 21.7013C85.2132 21.6503 85.5077 21.6183 85.8276 21.6055C86.1594 21.58 86.499 21.5417 86.8426 21.4905C87.1881 21.4267 87.5198 21.3372 87.8398 21.2221C88.1598 21.1071 88.4464 20.9346 88.7036 20.7045C88.7802 20.6407 88.8626 20.5576 88.9529 20.4554C89.055 20.3531 89.1571 20.2573 89.2591 20.1678C89.3612 20.0655 89.4633 19.9824 89.5654 19.9185C89.6675 19.8419 89.7696 19.7907 89.8716 19.7651C90.2171 19.7013 90.4605 19.6181 90.5999 19.516C90.753 19.401 90.8826 19.2922 90.9847 19.1899C91.0868 19.0879 91.2006 18.9983 91.3282 18.9216C91.4578 18.845 91.6737 18.8066 91.98 18.8066H92.3648C92.5041 18.8066 92.6062 18.8003 92.671 18.7875C92.6965 18.7875 92.83 18.7235 93.0734 18.5957C93.3169 18.4552 93.578 18.3018 93.8606 18.1356C94.1531 17.9695 94.4162 17.8225 94.6459 17.6947C94.8893 17.5541 95.0228 17.4774 95.0483 17.4647C95.0228 17.2729 94.9973 17.1451 94.9717 17.0812C94.958 17.0173 94.9404 16.9854 94.9148 16.9854C94.8893 16.9854 94.8697 16.9982 94.8559 17.0237C94.8441 17.0365 94.8304 17.0429 94.8186 17.0429C94.7931 17.0429 94.7735 17.011 94.7597 16.9471C94.7597 16.8831 94.7597 16.7426 94.7597 16.5253C94.7597 16.5125 94.691 16.4678 94.5497 16.3911C94.4083 16.3144 94.2552 16.2313 94.0903 16.1419C93.9372 16.0524 93.79 15.9693 93.6486 15.8927C93.5073 15.816 93.4386 15.7712 93.4386 15.7585L93.4759 15.5284C93.0676 15.3878 92.6906 15.2025 92.3451 14.9725C91.9996 14.7296 91.6541 14.4868 91.3106 14.2439C90.9651 13.9883 90.6078 13.7519 90.2368 13.5346C89.8795 13.3174 89.4751 13.1576 89.0295 13.0553L88.7409 12.9979C88.7409 12.9851 88.7409 12.9403 88.7409 12.8637C88.7409 12.7742 88.735 12.6911 88.7212 12.6144C88.7095 12.525 88.6957 12.4419 88.6839 12.3652C88.6702 12.2885 88.6526 12.2502 88.627 12.2502C88.5995 12.2502 88.574 12.2693 88.5485 12.3077C88.523 12.346 88.4916 12.3908 88.4543 12.4419C88.4288 12.493 88.4032 12.5377 88.3777 12.5761C88.3522 12.6016 88.3326 12.6144 88.3188 12.6144C88.2167 12.6016 88.095 12.5314 87.9556 12.4035C87.828 12.2757 87.6867 12.1351 87.5336 11.9818C87.3805 11.8284 87.2273 11.6878 87.0722 11.56C86.9329 11.4194 86.8053 11.3236 86.6895 11.2725C86.5501 11.2086 86.4087 11.151 86.2674 11.0999C86.1398 11.0488 86.0063 10.9913 85.865 10.9274C85.8021 10.9018 85.757 10.8571 85.7315 10.7932C85.7177 10.7293 85.6922 10.6654 85.6549 10.6015C85.6156 10.5248 85.5528 10.4545 85.4625 10.3906C85.3742 10.3267 85.2328 10.282 85.0404 10.2564C84.7479 10.2181 84.5301 10.103 84.3887 9.91133C84.2493 9.70684 84.1786 9.4768 84.1786 9.22119C84.1786 9.04225 84.21 8.85693 84.2748 8.66524C84.3514 8.47352 84.4594 8.30099 84.6007 8.14761C84.7538 7.99425 84.9325 7.87283 85.1366 7.78338C85.3546 7.68112 85.598 7.63 85.865 7.63C86.2105 7.63 86.6011 7.72586 87.035 7.91757C87.4825 8.09649 87.9674 8.416 88.4916 8.87611C88.6447 9.01669 88.7546 9.12533 88.8175 9.20201C88.8822 9.26593 88.9254 9.31705 88.9529 9.35538C88.9784 9.39372 89.004 9.43206 89.0295 9.4704C89.0668 9.49596 89.1237 9.5343 89.2002 9.58544C89.2905 9.63656 89.4241 9.70684 89.6047 9.79632C89.7833 9.87299 90.0385 9.98801 90.3703 10.1414C90.5626 10.2308 90.7158 10.3267 90.8316 10.4289C90.9592 10.5312 91.073 10.6398 91.1751 10.7549C91.2772 10.8571 91.3793 10.9721 91.4833 11.0999C91.5854 11.2149 91.7071 11.3364 91.8465 11.4642C92.0134 11.6175 92.192 11.739 92.3844 11.8284C92.5886 11.9051 92.7927 11.9818 92.9969 12.0585C93.201 12.1224 93.4052 12.1991 93.6113 12.2885C93.8155 12.3652 94 12.4674 94.1669 12.5953C94.32 12.7231 94.4672 12.8445 94.6066 12.9595C94.7597 13.0617 94.907 13.164 95.0483 13.2662C95.2152 13.394 95.3683 13.4835 95.5077 13.5346C95.649 13.5858 95.7825 13.6305 95.9101 13.6688C96.0514 13.6944 96.179 13.72 96.2949 13.7455C96.4225 13.7711 96.556 13.8222 96.6973 13.8989C96.7739 13.9372 96.819 13.9947 96.8308 14.0714C96.8563 14.1353 96.8701 14.2056 96.8701 14.2823C96.8818 14.359 96.8877 14.4357 96.8877 14.5123C96.9015 14.589 96.9329 14.6529 96.9839 14.7041H97.5218C97.6494 14.7935 97.777 14.8702 97.9046 14.9341C98.046 14.9852 98.1677 15.0491 98.2698 15.1258C98.3836 15.2025 98.4739 15.2983 98.5367 15.4134C98.6133 15.5156 98.6526 15.6626 98.6526 15.8543C98.6526 16.2122 98.5956 16.5636 98.4798 16.9087C98.3777 17.2538 98.3267 17.6116 98.3267 17.9823L98.3463 18.2698C97.9105 18.6277 97.514 18.9216 97.1567 19.1517C96.7994 19.3817 96.4343 19.5863 96.0652 19.7651C95.706 19.9442 95.329 20.1165 94.9325 20.2828C94.5379 20.4361 94.0825 20.6152 93.5721 20.8195C93.3286 21.0751 93.0676 21.3307 92.7868 21.5863C92.5042 21.8421 92.2038 22.0592 91.8858 22.2382C91.6797 22.3533 91.4951 22.4298 91.3282 22.4683C91.1751 22.5066 91.0161 22.5449 90.8493 22.5834C90.6961 22.6216 90.5371 22.6792 90.3703 22.7557C90.2171 22.8325 90.0385 22.9667 89.8343 23.1583C89.6419 23.3501 89.4378 23.4459 89.2199 23.4459C89.1178 23.4459 89.0216 23.4397 88.9333 23.4267C88.843 23.4139 88.7468 23.4077 88.6447 23.4077H88.4916C88.3777 23.5865 88.205 23.7718 87.9733 23.9636C87.7574 24.1552 87.5198 24.3342 87.2646 24.5003C87.0212 24.6666 86.7798 24.8072 86.5363 24.9222C86.3066 25.0243 86.1143 25.0755 85.9611 25.0755C85.7432 25.0755 85.5273 25.0115 85.3094 24.8837C85.1052 24.7432 84.9129 24.5643 84.7342 24.347C84.5556 24.1297 84.4083 23.8933 84.2925 23.6377C84.1904 23.3694 84.1394 23.1073 84.1394 22.8517C84.1394 22.6089 84.1983 22.3851 84.3122 22.1807C84.4398 21.9762 84.6517 21.8164 84.9443 21.7013Z" fill="#FF1744"/>
<path d="M35.3011 22.1691C35.5952 22.2842 35.7995 22.4439 35.9146 22.6485C36.0424 22.8529 36.1064 23.0767 36.1064 23.3195C36.1064 23.5751 36.0489 23.8372 35.9338 24.1055C35.8316 24.3611 35.691 24.5975 35.512 24.8148C35.3331 25.0321 35.135 25.2109 34.9177 25.3515C34.7004 25.4793 34.4896 25.5433 34.285 25.5433C34.1317 25.5433 33.9336 25.492 33.6908 25.39C33.4607 25.2749 33.2179 25.1344 32.9623 24.9681C32.7195 24.802 32.4831 24.623 32.253 24.4314C32.0357 24.2396 31.8696 24.0543 31.7546 23.8754H31.6013C31.499 23.8754 31.403 23.8817 31.3137 23.8945C31.2242 23.9074 31.1284 23.9137 31.0261 23.9137C30.8088 23.9137 30.6042 23.8179 30.4126 23.6261C30.2081 23.4345 30.0227 23.3003 29.8567 23.2235C29.7033 23.1469 29.5435 23.0894 29.3773 23.0511C29.224 23.0127 29.0642 22.9744 28.8981 22.9361C28.7448 22.8976 28.5657 22.8211 28.3614 22.706C28.0418 22.527 27.7414 22.3099 27.4603 22.0541C27.1792 21.7985 26.9171 21.5429 26.6743 21.2873C26.1631 21.0829 25.7094 20.9039 25.3131 20.7506C24.9169 20.5843 24.5335 20.4119 24.1629 20.2329C23.805 20.0541 23.4472 19.8495 23.0893 19.6194C22.7314 19.3894 22.3353 19.0955 21.9006 18.7376L21.9199 18.45C21.9199 18.0794 21.8624 17.7216 21.7473 17.3765C21.645 17.0314 21.594 16.6799 21.594 16.3221C21.594 16.1304 21.626 15.9834 21.6898 15.8812C21.7665 15.7661 21.8561 15.6703 21.9582 15.5936C22.0732 15.5169 22.1947 15.453 22.3225 15.4019C22.4631 15.338 22.5973 15.2613 22.7251 15.1718H23.2618C23.3131 15.1207 23.3386 15.0568 23.3386 14.9801C23.3514 14.9034 23.3576 14.8268 23.3576 14.7501C23.3704 14.6734 23.3834 14.6031 23.3961 14.5392C23.4216 14.4625 23.4727 14.405 23.5494 14.3667C23.6772 14.29 23.805 14.2389 23.9328 14.2133C24.0606 14.1877 24.1884 14.1622 24.3162 14.1366C24.4568 14.0983 24.5973 14.0535 24.7381 14.0024C24.8786 13.9513 25.032 13.8618 25.198 13.734C25.3388 13.6318 25.4793 13.5295 25.6199 13.4273C25.7732 13.3123 25.9266 13.1908 26.0801 13.063C26.2461 12.9352 26.4315 12.833 26.636 12.7563C26.8404 12.6668 27.0449 12.5901 27.2495 12.5262C27.4538 12.4496 27.6519 12.3729 27.8437 12.2962C28.0483 12.2067 28.2336 12.0853 28.3997 11.932C28.5402 11.8041 28.6617 11.6827 28.7638 11.5677C28.8661 11.4399 28.9684 11.3249 29.0706 11.2226C29.1729 11.1076 29.2815 10.999 29.3965 10.8967C29.5243 10.7945 29.6841 10.6986 29.8759 10.6092C30.2081 10.4558 30.4637 10.3408 30.6427 10.2641C30.8215 10.1746 30.9493 10.1043 31.0261 10.0532C31.1156 10.0021 31.1731 9.96374 31.1986 9.93818C31.2369 9.89984 31.2689 9.8615 31.2944 9.82316C31.32 9.78482 31.3647 9.7337 31.4287 9.66979C31.4925 9.59311 31.6013 9.48447 31.7546 9.34389C32.2785 8.88378 32.7577 8.56427 33.1924 8.38535C33.6398 8.19364 34.0359 8.09778 34.381 8.09778C34.6494 8.09778 34.8857 8.1489 35.0903 8.25116C35.3076 8.34061 35.4864 8.46203 35.627 8.61539C35.7805 8.76876 35.8891 8.9413 35.9531 9.13302C36.0296 9.32471 36.0679 9.51003 36.0679 9.68897C36.0679 9.94458 35.9976 10.1746 35.8571 10.3791C35.7165 10.5708 35.4992 10.6858 35.2053 10.7242C35.0135 10.7497 34.873 10.7945 34.7837 10.8584C34.6941 10.9223 34.6301 10.9926 34.5919 11.0693C34.5536 11.1332 34.5216 11.1971 34.4961 11.261C34.4833 11.3249 34.4448 11.3696 34.381 11.3952C34.2405 11.4591 34.0997 11.5166 33.9591 11.5677C33.8313 11.6188 33.6973 11.6763 33.5567 11.7402C33.4417 11.7914 33.3074 11.8872 33.1541 12.0278C33.0135 12.1556 32.8665 12.2962 32.7132 12.4496C32.5597 12.6029 32.4128 12.7435 32.2723 12.8713C32.1315 12.9991 32.0165 13.0694 31.9271 13.0822C31.9144 13.0822 31.8951 13.0694 31.8696 13.0439C31.8441 13.0055 31.8121 12.9608 31.7736 12.9097C31.7481 12.8585 31.7161 12.8138 31.6778 12.7755C31.6523 12.7371 31.6331 12.718 31.6203 12.718C31.5948 12.718 31.5756 12.7563 31.5628 12.833C31.55 12.9097 31.5373 12.9927 31.5245 13.0822C31.5118 13.1589 31.5053 13.242 31.5053 13.3314C31.5053 13.4081 31.5053 13.4529 31.5053 13.4656L31.2177 13.5231C30.7705 13.6254 30.3614 13.7851 29.9907 14.0024C29.6331 14.2197 29.2815 14.4561 28.9364 14.7117C28.5914 14.9546 28.2463 15.1974 27.9012 15.4402C27.5561 15.6703 27.1792 15.8556 26.7701 15.9962L26.8084 16.2262C26.8084 16.239 26.7381 16.2837 26.5975 16.3604C26.457 16.4371 26.3037 16.5202 26.1376 16.6096C25.9841 16.6991 25.8372 16.7822 25.6965 16.8589C25.5559 16.9355 25.4856 16.9803 25.4856 16.9931C25.4856 17.2103 25.4794 17.3509 25.4666 17.4148C25.4666 17.4787 25.4536 17.5107 25.4281 17.5107C25.4154 17.5107 25.4026 17.5043 25.3898 17.4915C25.3771 17.4659 25.3578 17.4532 25.3323 17.4532C25.3068 17.4532 25.2813 17.4851 25.2556 17.549C25.2428 17.6129 25.2238 17.7407 25.198 17.9324C25.2108 17.9452 25.3388 18.0219 25.5814 18.1625C25.8243 18.2903 26.0863 18.4373 26.3675 18.6033C26.6615 18.7696 26.9299 18.9229 27.1727 19.0635C27.4156 19.1913 27.5498 19.2553 27.5753 19.2553C27.6391 19.2681 27.7414 19.2743 27.882 19.2743H28.2654C28.5722 19.2743 28.7895 19.3128 28.9173 19.3894C29.0451 19.4661 29.1602 19.5556 29.2622 19.6577C29.3645 19.76 29.486 19.8688 29.6266 19.9838C29.7799 20.0859 30.0292 20.1691 30.3743 20.2329C30.4637 20.2584 30.5597 20.3097 30.6617 20.3862C30.7768 20.4502 30.8855 20.5333 30.9878 20.6355C31.0899 20.7251 31.1859 20.8209 31.2752 20.9231C31.3775 21.0254 31.467 21.1085 31.5437 21.1723C31.7866 21.4023 32.0677 21.5749 32.3871 21.6899C32.7195 21.805 33.0581 21.8945 33.4032 21.9583C33.7483 22.0095 34.0807 22.0478 34.4001 22.0733C34.7324 22.0861 35.0328 22.1181 35.3011 22.1691Z" fill="#FF1744"/>
<path d="M18.9984 21.2644C18.9984 21.52 18.9856 21.7818 18.9599 22.0502C18.9471 22.306 18.9089 22.5616 18.8449 22.8172C18.7938 23.0343 18.7236 23.2388 18.634 23.4306C18.5575 23.6095 18.5062 23.8075 18.4807 24.0249C18.4552 24.1527 18.4297 24.2932 18.404 24.4465C18.3784 24.5873 18.2826 24.6576 18.1164 24.6576L17.963 24.6383C17.7586 24.6383 17.6052 24.7214 17.503 24.8876C17.4008 25.041 17.3177 25.2326 17.2538 25.4626C17.2027 25.68 17.1579 25.9035 17.1196 26.1336C17.094 26.3637 17.0621 26.549 17.0237 26.6896C16.9854 26.8301 16.9598 26.9579 16.947 27.073C16.947 27.1752 16.9407 27.2712 16.9279 27.3606C16.9279 27.4373 16.9023 27.5204 16.8512 27.6099C16.8001 27.6994 16.7106 27.7952 16.5828 27.8975C16.3783 28.0508 16.1802 28.1978 15.9885 28.3384C15.7968 28.4789 15.6243 28.645 15.4709 28.8368C15.3559 28.9774 15.2792 29.0987 15.2408 29.201C15.2025 29.3032 15.1641 29.399 15.1258 29.4886C15.0875 29.5781 15.0236 29.6611 14.9341 29.7379C14.8574 29.8017 14.7232 29.8657 14.5315 29.9295C14.2376 30.0317 13.9564 30.1468 13.688 30.2746C13.4196 30.4024 13.1448 30.5174 12.8637 30.6197C12.5314 30.7475 12.2182 30.8945 11.9243 31.0606C11.6303 31.2139 11.33 31.361 11.0232 31.5015C10.7165 31.6421 10.397 31.7571 10.0647 31.8466C9.74519 31.9489 9.40012 31.9999 9.02947 31.9999C8.69718 31.9999 8.36488 31.9489 8.03259 31.8466C7.71308 31.7443 7.41274 31.6038 7.13157 31.4248C6.86317 31.3992 6.65868 31.3034 6.5181 31.1374C6.3775 30.9711 6.26249 30.773 6.17303 30.5429C6.09633 30.3641 6.01965 30.2363 5.94297 30.1595C5.87907 30.0828 5.80237 30.0317 5.71292 30.0062C5.63624 29.9679 5.54678 29.9359 5.44452 29.9104C5.34228 29.8847 5.22087 29.8272 5.08027 29.7379C4.50516 29.3672 3.98115 28.9071 3.50826 28.3574C3.03539 27.7952 2.59446 27.2328 2.18549 26.6705C2.09601 26.5427 2.02573 26.3957 1.97459 26.2296C1.93625 26.0506 1.89791 25.878 1.85957 25.712C1.82124 25.5329 1.7765 25.3668 1.72538 25.2135C1.68704 25.0472 1.62314 24.9194 1.53366 24.8301C1.36752 24.6639 1.22055 24.5745 1.09275 24.5616C0.964933 24.5488 0.856295 24.5233 0.766836 24.485C0.690158 24.4338 0.62624 24.3252 0.57512 24.1591C0.536781 23.9801 0.517621 23.6542 0.517621 23.1813C0.517621 22.8874 0.492062 22.5806 0.440923 22.2612C0.389804 21.9416 0.325905 21.6158 0.249227 21.2834C0.185328 20.9383 0.127807 20.5934 0.0766844 20.2483C0.0255614 19.8904 0 19.5389 0 19.1938C0 18.8232 0.0191716 18.4525 0.0575128 18.0819C0.108636 17.7113 0.166149 17.3406 0.230047 16.97C0.293946 16.5994 0.357865 16.2351 0.421763 15.8773C0.485662 15.5066 0.530401 15.136 0.555961 14.7654C0.58152 14.4203 0.5943 14.0688 0.5943 13.711C0.60708 13.3531 0.619859 12.9952 0.632639 12.6374C0.658199 12.2795 0.696538 11.9281 0.747657 11.583C0.798796 11.2379 0.888254 10.8992 1.01605 10.5669C1.14387 10.2091 1.30363 9.87039 1.49532 9.55088C1.69982 9.23136 1.89791 8.91185 2.08963 8.59234C2.28133 8.27282 2.46026 7.94691 2.6264 7.61462C2.79256 7.28232 2.92035 6.92447 3.00983 6.54106C3.06095 6.29822 3.22071 6.07457 3.4891 5.87007C3.7575 5.6528 4.08979 5.4547 4.48598 5.27576C4.88217 5.08407 5.31032 4.91791 5.77044 4.77733C6.24331 4.62396 6.7098 4.49616 7.16991 4.39392C7.63 4.27888 8.05177 4.19581 8.43518 4.14469C8.83137 4.08079 9.15089 4.04883 9.39372 4.04883C10.0327 4.04883 10.6334 4.13191 11.1958 4.29806C11.7581 4.45142 12.3269 4.65592 12.902 4.91153C13.1576 5.02655 13.4324 5.12241 13.7263 5.19909C14.0331 5.26298 14.3206 5.29494 14.589 5.29494C14.8574 5.29494 15.0555 5.2502 15.1833 5.16075C15.3239 5.05851 15.4325 4.94347 15.5092 4.81567C15.5859 4.6751 15.6498 4.54728 15.7009 4.43226C15.7521 4.30444 15.8288 4.2086 15.931 4.14469L15.8735 4.16387C15.899 4.13831 15.9438 4.12553 16.0077 4.12553C16.0716 4.11275 16.1419 4.10635 16.2185 4.10635C16.3208 4.11913 16.4422 4.14469 16.5828 4.18303C16.7362 4.22138 16.8895 4.2661 17.0429 4.31722C17.1963 4.36836 17.3368 4.42586 17.4647 4.48976C17.6052 4.5409 17.7075 4.59202 17.7714 4.64314C17.8097 4.6687 17.8737 4.75177 17.963 4.89235C18.0526 5.03295 18.1421 5.1863 18.2314 5.35246C18.3337 5.5186 18.4167 5.67198 18.4807 5.81255C18.5575 5.95315 18.5958 6.04261 18.5958 6.08095C18.5958 6.40046 18.6405 6.70081 18.73 6.98199C18.8321 7.26314 18.8833 7.5635 18.8833 7.88301C18.8833 8.2153 18.8321 8.54122 18.73 8.86073C18.6405 9.18024 18.5958 9.50614 18.5958 9.83843C18.5958 10.2474 18.602 10.65 18.615 11.0462C18.6405 11.4296 18.6533 11.8258 18.6533 12.2348C18.6533 12.6054 18.634 12.9761 18.5958 13.3467C18.5702 13.7046 18.519 14.0624 18.4424 14.4203C18.4167 14.5225 18.3912 14.6439 18.3657 14.7845C18.3402 14.9251 18.3019 15.0593 18.2506 15.1871C18.2124 15.3149 18.1548 15.4236 18.0781 15.513C18.0143 15.6025 17.9248 15.6472 17.8097 15.6472C17.6947 15.6472 17.5925 15.628 17.503 15.5897C17.4391 15.6025 17.3816 15.6153 17.3305 15.628C17.2793 15.628 17.2218 15.628 17.1579 15.628C17.0429 15.628 16.9726 15.6089 16.947 15.5705C16.9215 15.5322 16.9087 15.4875 16.9087 15.4363C16.9087 15.3724 16.8959 15.3085 16.8703 15.2446C16.8576 15.1679 16.7937 15.0976 16.6787 15.0337C16.602 14.9826 16.4997 14.9507 16.3719 14.9379C16.2441 14.9251 16.1163 14.9123 15.9885 14.8995C15.8735 14.874 15.7712 14.8356 15.6818 14.7845C15.5923 14.7206 15.5476 14.6248 15.5476 14.497C15.5476 14.3564 15.5731 14.2861 15.6243 14.2861C15.6882 14.2733 15.7585 14.2925 15.8351 14.3436C15.9246 14.3947 16.0204 14.4458 16.1227 14.497C16.2249 14.5353 16.3208 14.5353 16.4103 14.497C16.2313 14.2925 16.0716 14.0816 15.931 13.8643C15.8032 13.6343 15.669 13.4042 15.5284 13.1742C15.4006 12.9441 15.2664 12.7141 15.1258 12.484C14.9852 12.254 14.8255 12.0431 14.6465 11.8514C14.4932 11.6852 14.3654 11.4935 14.2631 11.2763C14.1609 11.059 14.0586 10.8417 13.9564 10.6244C13.8669 10.3944 13.7647 10.1835 13.6497 9.99181C13.5474 9.78731 13.4132 9.62118 13.2471 9.49336C12.6592 9.04605 12.0073 8.65623 11.2916 8.32394C10.5887 7.97887 9.85383 7.80633 9.08699 7.80633C8.5502 7.80633 8.05177 7.88941 7.59166 8.05555C7.14435 8.20892 6.69702 8.4198 6.24971 8.68819C6.07077 8.79043 5.89823 8.87989 5.7321 8.95657C5.57872 9.03327 5.42536 9.12273 5.27199 9.22496C5.13141 9.31444 5.00359 9.42946 4.88857 9.57004C4.78633 9.69785 4.70964 9.87679 4.65852 10.1068C4.59462 10.3369 4.56266 10.5733 4.56266 10.8162C4.57544 11.059 4.51794 11.2826 4.39012 11.4871C4.32622 11.5894 4.22399 11.6725 4.08339 11.7364C3.95559 11.8003 3.87251 11.8961 3.83417 12.0239C3.73194 12.3179 3.66802 12.6246 3.64246 12.9441C3.62968 13.2636 3.6169 13.5895 3.60412 13.9218C3.60412 14.2541 3.59774 14.5928 3.58496 14.9379C3.57218 15.2702 3.52104 15.5897 3.43158 15.8964C3.3549 16.152 3.29739 16.4077 3.25905 16.6633C3.23349 16.9189 3.22071 17.1745 3.22071 17.4301C3.22071 17.9158 3.23349 18.395 3.25905 18.8679C3.29739 19.328 3.31656 19.7946 3.31656 20.2673C3.31656 20.8425 3.34212 21.4049 3.39324 21.9544C3.45714 22.5041 3.56578 23.0535 3.71916 23.6032C3.83417 24.0121 3.99393 24.4083 4.19843 24.7916C4.4029 25.1623 4.55628 25.5522 4.65852 25.9611C4.70964 26.1784 4.79912 26.4085 4.92691 26.6513C5.06749 26.8941 5.22725 27.1177 5.40618 27.3223C5.5979 27.5268 5.80877 27.6994 6.03883 27.8399C6.26887 27.9677 6.50532 28.0315 6.74814 28.0315C6.92707 28.0315 7.09961 28.0125 7.26577 27.974C7.4319 27.923 7.60444 27.8975 7.78338 27.8975C7.97507 27.8975 8.16679 27.9165 8.3585 27.955C8.5502 27.9805 8.74192 27.9933 8.93363 27.9933C9.2787 27.9933 9.63656 27.9485 10.0072 27.859C10.3906 27.7697 10.7101 27.5906 10.9657 27.3223C11.1447 27.1305 11.3491 26.9964 11.5792 26.9196C11.8093 26.8431 12.0393 26.7791 12.2693 26.728C12.5122 26.6768 12.7422 26.613 12.9595 26.5363C13.1768 26.4467 13.3685 26.2934 13.5346 26.0761C13.6369 25.9355 13.7391 25.7182 13.8414 25.4244C13.9564 25.1305 14.0714 24.8236 14.1864 24.5041C14.3015 24.1847 14.4165 23.8971 14.5315 23.6415C14.6593 23.3731 14.7871 23.2068 14.9149 23.143C15.0299 23.079 15.1002 22.9194 15.1258 22.6637C15.1641 22.3953 15.1833 22.0822 15.1833 21.7243V20.8425C15.1833 20.5869 15.1897 20.3378 15.2025 20.0949C15.2153 19.8521 15.2408 19.6348 15.2792 19.443C15.3303 19.2513 15.4006 19.098 15.4901 18.9829C15.5795 18.8679 15.7009 18.8104 15.8543 18.8104C15.9949 18.8104 16.1035 18.8615 16.1802 18.9638C16.2697 19.0532 16.3783 19.098 16.5061 19.098C16.6339 19.098 16.7553 19.0596 16.8703 18.9829C16.9982 18.8935 17.1324 18.8487 17.2729 18.8487C17.4647 18.8487 17.6372 18.9318 17.7906 19.098C17.9568 19.2641 18.1036 19.4494 18.2314 19.6539C18.3722 19.8584 18.4807 20.0502 18.5575 20.229C18.6468 20.3951 18.7108 20.4846 18.7491 20.4974C18.8769 20.5231 18.9471 20.6317 18.9599 20.8233C18.9856 21.0023 18.9984 21.1493 18.9984 21.2644Z" fill="white"/>
<path d="M58.1375 21.2644C58.1375 21.52 58.1248 21.7818 58.0991 22.0502C58.0863 22.306 58.048 22.5616 57.984 22.8172C57.933 23.0343 57.8627 23.2388 57.7732 23.4306C57.6966 23.6095 57.6454 23.8075 57.6199 24.0249C57.5944 24.1527 57.5688 24.2932 57.5431 24.4465C57.5176 24.5873 57.4218 24.6576 57.2555 24.6576L57.1022 24.6383C56.8978 24.6383 56.7444 24.7214 56.6422 24.8876C56.5399 25.041 56.4568 25.2326 56.3929 25.4626C56.3418 25.68 56.2971 25.9035 56.2587 26.1336C56.2332 26.3637 56.2012 26.549 56.1629 26.6896C56.1245 26.8301 56.099 26.9579 56.0862 27.073C56.0862 27.1752 56.0798 27.2712 56.067 27.3606C56.067 27.4373 56.0415 27.5204 55.9903 27.6099C55.9392 27.6994 55.8498 27.7952 55.722 27.8975C55.5175 28.0508 55.3194 28.1978 55.1277 28.3384C54.936 28.4789 54.7634 28.645 54.61 28.8368C54.495 28.9774 54.4183 29.0987 54.38 29.201C54.3417 29.3032 54.3033 29.399 54.265 29.4886C54.2266 29.5781 54.1627 29.6611 54.0733 29.7379C53.9966 29.8017 53.8624 29.8657 53.6707 29.9295C53.3767 30.0317 53.0956 30.1468 52.8272 30.2746C52.5588 30.4024 52.284 30.5174 52.0028 30.6197C51.6705 30.7475 51.3574 30.8945 51.0634 31.0606C50.7695 31.2139 50.4691 31.361 50.1624 31.5015C49.8557 31.6421 49.5362 31.7571 49.2039 31.8466C48.8844 31.9489 48.5393 31.9999 48.1686 31.9999C47.8363 31.9999 47.504 31.9489 47.1718 31.8466C46.8522 31.7443 46.5519 31.6038 46.2707 31.4248C46.0023 31.3992 45.7978 31.3034 45.6573 31.1374C45.5167 30.9711 45.4016 30.773 45.3122 30.5429C45.2355 30.3641 45.1588 30.2363 45.0821 30.1595C45.0182 30.0828 44.9415 30.0317 44.8521 30.0062C44.7754 29.9679 44.6859 29.9359 44.5837 29.9104C44.4814 29.8847 44.36 29.8272 44.2194 29.7379C43.6443 29.3672 43.1203 28.9071 42.6474 28.3574C42.1746 27.7952 41.7336 27.2328 41.3246 26.6705C41.2352 26.5427 41.1649 26.3957 41.1138 26.2296C41.0754 26.0506 41.0371 25.878 40.9987 25.712C40.9604 25.5329 40.9157 25.3668 40.8645 25.2135C40.8262 25.0472 40.7623 24.9194 40.6728 24.8301C40.5067 24.6639 40.3597 24.5745 40.2319 24.5616C40.1041 24.5488 39.9955 24.5233 39.906 24.485C39.8293 24.4338 39.7654 24.3252 39.7143 24.1591C39.6759 23.9801 39.6568 23.6542 39.6568 23.1813C39.6568 22.8874 39.6312 22.5806 39.5801 22.2612C39.529 21.9416 39.4651 21.6158 39.3884 21.2834C39.3245 20.9383 39.267 20.5934 39.2158 20.2483C39.1647 19.8904 39.1392 19.5389 39.1392 19.1938C39.1392 18.8232 39.1583 18.4525 39.1967 18.0819C39.2478 17.7113 39.3053 17.3406 39.3692 16.97C39.4331 16.5994 39.497 16.2351 39.5609 15.8773C39.6248 15.5066 39.6696 15.136 39.6951 14.7654C39.7207 14.4203 39.7335 14.0688 39.7335 13.711C39.7462 13.3531 39.759 12.9952 39.7718 12.6374C39.7974 12.2795 39.8357 11.9281 39.8868 11.583C39.938 11.2379 40.0274 10.8992 40.1552 10.5669C40.283 10.2091 40.4428 9.87039 40.6345 9.55088C40.839 9.23136 41.0371 8.91185 41.2288 8.59234C41.4205 8.27282 41.5994 7.94691 41.7656 7.61462C41.9317 7.28232 42.0595 6.92447 42.149 6.54106C42.2001 6.29822 42.3599 6.07457 42.6283 5.87007C42.8967 5.6528 43.2289 5.4547 43.6251 5.27576C44.0213 5.08407 44.4495 4.91791 44.9096 4.77733C45.3825 4.62396 45.849 4.49616 46.3091 4.39392C46.7692 4.27888 47.1909 4.19581 47.5743 4.14469C47.9705 4.08079 48.29 4.04883 48.5329 4.04883C49.1719 4.04883 49.7726 4.13191 50.3349 4.29806C50.8973 4.45142 51.466 4.65592 52.0412 4.91153C52.2968 5.02655 52.5715 5.12241 52.8655 5.19909C53.1722 5.26298 53.4598 5.29494 53.7282 5.29494C53.9966 5.29494 54.1947 5.2502 54.3225 5.16075C54.4631 5.05851 54.5717 4.94347 54.6484 4.81567C54.7251 4.6751 54.789 4.54728 54.8401 4.43226C54.8912 4.30444 54.9679 4.2086 55.0701 4.14469L55.0126 4.16387C55.0382 4.13831 55.0829 4.12553 55.1468 4.12553C55.2107 4.11275 55.281 4.10635 55.3577 4.10635C55.46 4.11913 55.5814 4.14469 55.722 4.18303C55.8753 4.22138 56.0287 4.2661 56.1821 4.31722C56.3354 4.36836 56.476 4.42586 56.6038 4.48976C56.7444 4.5409 56.8467 4.59202 56.9106 4.64314C56.9489 4.6687 57.0129 4.75177 57.1022 4.89235C57.1917 5.03295 57.2812 5.1863 57.3706 5.35246C57.4728 5.5186 57.5559 5.67198 57.6199 5.81255C57.6966 5.95315 57.7349 6.04261 57.7349 6.08095C57.7349 6.40046 57.7797 6.70081 57.8692 6.98199C57.9713 7.26314 58.0225 7.5635 58.0225 7.88301C58.0225 8.2153 57.9713 8.54122 57.8692 8.86073C57.7797 9.18024 57.7349 9.50614 57.7349 9.83843C57.7349 10.2474 57.7412 10.65 57.7542 11.0462C57.7797 11.4296 57.7924 11.8258 57.7924 12.2348C57.7924 12.6054 57.7732 12.9761 57.7349 13.3467C57.7094 13.7046 57.6582 14.0624 57.5816 14.4203C57.5559 14.5225 57.5304 14.6439 57.5048 14.7845C57.4793 14.9251 57.441 15.0593 57.3898 15.1871C57.3515 15.3149 57.294 15.4236 57.2172 15.513C57.1534 15.6025 57.0639 15.6472 56.9489 15.6472C56.8339 15.6472 56.7316 15.628 56.6422 15.5897C56.5783 15.6025 56.5207 15.6153 56.4696 15.628C56.4185 15.628 56.361 15.628 56.2971 15.628C56.1821 15.628 56.1118 15.6089 56.0862 15.5705C56.0606 15.5322 56.0479 15.4875 56.0479 15.4363C56.0479 15.3724 56.0351 15.3085 56.0095 15.2446C55.9967 15.1679 55.9328 15.0976 55.8178 15.0337C55.7411 14.9826 55.6389 14.9507 55.5111 14.9379C55.3833 14.9251 55.2555 14.9123 55.1277 14.8995C55.0126 14.874 54.9104 14.8356 54.8209 14.7845C54.7315 14.7206 54.6867 14.6248 54.6867 14.497C54.6867 14.3564 54.7123 14.2861 54.7634 14.2861C54.8273 14.2733 54.8976 14.2925 54.9743 14.3436C55.0637 14.3947 55.1596 14.4458 55.2618 14.497C55.3641 14.5353 55.46 14.5353 55.5494 14.497C55.3705 14.2925 55.2107 14.0816 55.0701 13.8643C54.9423 13.6343 54.8082 13.4042 54.6676 13.1742C54.5398 12.9441 54.4056 12.7141 54.265 12.484C54.1244 12.254 53.9646 12.0431 53.7857 11.8514C53.6323 11.6852 53.5045 11.4935 53.4023 11.2763C53.3 11.059 53.1978 10.8417 53.0956 10.6244C53.0061 10.3944 52.9038 10.1835 52.7888 9.99181C52.6866 9.78731 52.5524 9.62118 52.3862 9.49336C51.7983 9.04605 51.1465 8.65623 50.4308 8.32394C49.7279 7.97887 48.993 7.80633 48.2261 7.80633C47.6894 7.80633 47.1909 7.88941 46.7308 8.05555C46.2835 8.20892 45.8362 8.4198 45.3889 8.68819C45.2099 8.79043 45.0374 8.87989 44.8713 8.95657C44.7179 9.03327 44.5645 9.12273 44.4111 9.22496C44.2706 9.31444 44.1428 9.42946 44.0277 9.57004C43.9255 9.69785 43.8488 9.87679 43.7977 10.1068C43.7338 10.3369 43.7018 10.5733 43.7018 10.8162C43.7146 11.059 43.6571 11.2826 43.5293 11.4871C43.4654 11.5894 43.3631 11.6725 43.2225 11.7364C43.0948 11.8003 43.0117 11.8961 42.9733 12.0239C42.8711 12.3179 42.8072 12.6246 42.7816 12.9441C42.7688 13.2636 42.7561 13.5895 42.7433 13.9218C42.7433 14.2541 42.7369 14.5928 42.7241 14.9379C42.7113 15.2702 42.6602 15.5897 42.5707 15.8964C42.4941 16.152 42.4365 16.4077 42.3982 16.6633C42.3726 16.9189 42.3599 17.1745 42.3599 17.4301C42.3599 17.9158 42.3726 18.395 42.3982 18.8679C42.4365 19.328 42.4557 19.7946 42.4557 20.2673C42.4557 20.8425 42.4813 21.4049 42.5324 21.9544C42.5963 22.5041 42.7049 23.0535 42.8583 23.6032C42.9733 24.0121 43.1331 24.4083 43.3376 24.7916C43.5421 25.1623 43.6954 25.5522 43.7977 25.9611C43.8488 26.1784 43.9383 26.4085 44.0661 26.6513C44.2067 26.8941 44.3664 27.1177 44.5453 27.3223C44.7371 27.5268 44.9479 27.6994 45.178 27.8399C45.408 27.9677 45.6445 28.0315 45.8873 28.0315C46.0662 28.0315 46.2388 28.0125 46.4049 27.974C46.5711 27.923 46.7436 27.8975 46.9225 27.8975C47.1142 27.8975 47.3059 27.9165 47.4977 27.955C47.6894 27.9805 47.8811 27.9933 48.0728 27.9933C48.4179 27.9933 48.7757 27.9485 49.1464 27.859C49.5298 27.7697 49.8493 27.5906 50.1049 27.3223C50.2838 27.1305 50.4883 26.9964 50.7184 26.9196C50.9484 26.8431 51.1785 26.7791 51.4085 26.728C51.6513 26.6768 51.8814 26.613 52.0987 26.5363C52.3159 26.4467 52.5076 26.2934 52.6738 26.0761C52.776 25.9355 52.8783 25.7182 52.9805 25.4244C53.0955 25.1305 53.2106 24.8236 53.3256 24.5041C53.4406 24.1847 53.5556 23.8971 53.6707 23.6415C53.7985 23.3731 53.9263 23.2068 54.0541 23.143C54.1691 23.079 54.2394 22.9194 54.265 22.6637C54.3033 22.3953 54.3225 22.0822 54.3225 21.7243V20.8425C54.3225 20.5869 54.3289 20.3378 54.3417 20.0949C54.3544 19.8521 54.38 19.6348 54.4183 19.443C54.4695 19.2513 54.5398 19.098 54.6292 18.9829C54.7187 18.8679 54.8401 18.8104 54.9935 18.8104C55.134 18.8104 55.2427 18.8615 55.3194 18.9638C55.4088 19.0532 55.5175 19.098 55.6453 19.098C55.7731 19.098 55.8945 19.0596 56.0095 18.9829C56.1373 18.8935 56.2715 18.8487 56.4121 18.8487C56.6038 18.8487 56.7764 18.9318 56.9297 19.098C57.0959 19.2641 57.2428 19.4494 57.3706 19.6539C57.5113 19.8584 57.6199 20.0502 57.6966 20.229C57.786 20.3951 57.85 20.4846 57.8882 20.4974C58.016 20.5231 58.0863 20.6317 58.0991 20.8233C58.1248 21.0023 58.1375 21.1493 58.1375 21.2644Z" fill="white"/>
</svg>
