<svg width="20" height="20" viewBox="0 0 20 20" fill="none" xmlns="http://www.w3.org/2000/svg">
<rect y="6.66663" width="2.22222" height="2.22222" fill="white"/>
<rect x="2.22266" y="6.66663" width="2.22222" height="2.22222" fill="white"/>
<rect x="2.22266" y="8.88892" width="2.22222" height="2.22222" fill="white"/>
<rect x="4.44434" y="8.88892" width="2.22222" height="2.22222" fill="white"/>
<rect x="4.44434" y="11.1111" width="2.22222" height="2.22222" fill="white"/>
<rect x="4.44434" y="13.3334" width="2.22222" height="2.22222" fill="white"/>
<rect x="4.44434" y="15.5555" width="2.22222" height="2.22222" fill="white"/>
<rect x="6.66699" y="15.5555" width="2.22222" height="2.22222" fill="white"/>
<rect x="2.22266" y="15.5555" width="2.22222" height="2.22222" fill="white"/>
<rect x="2.22266" y="17.7778" width="2.22222" height="2.22222" fill="white"/>
<rect x="4.44434" y="17.7778" width="2.22222" height="2.22222" fill="white"/>
<rect x="4.44434" y="6.66663" width="2.22222" height="2.22222" fill="white"/>
<rect x="6.66699" y="6.66663" width="2.22222" height="2.22222" fill="white"/>
<rect x="8.88867" y="6.66663" width="2.22222" height="2.22222" fill="white"/>
<rect x="8.88867" y="4.44446" width="2.22222" height="2.22222" fill="white"/>
<rect x="6.66699" y="4.44446" width="2.22222" height="2.22222" fill="white"/>
<rect x="6.66699" y="2.22217" width="2.22222" height="2.22222" fill="white"/>
<rect x="11.1113" y="4.44446" width="2.22222" height="2.22222" fill="white"/>
<rect x="11.1113" y="2.22217" width="2.22222" height="2.22222" fill="white"/>
<rect x="8.88867" y="2.22217" width="2.22222" height="2.22222" fill="white"/>
<rect x="8.88867" width="2.22222" height="2.22222" fill="white"/>
<rect x="11.1113" y="6.66663" width="2.22222" height="2.22222" fill="white"/>
<rect x="13.333" y="6.66663" width="2.22222" height="2.22222" fill="white"/>
<rect x="15.5557" y="6.66663" width="2.22222" height="2.22222" fill="white"/>
<rect x="15.5557" y="8.88892" width="2.22222" height="2.22222" fill="white"/>
<rect x="13.333" y="8.88892" width="2.22222" height="2.22222" fill="white"/>
<rect x="13.333" y="11.1111" width="2.22222" height="2.22222" fill="white"/>
<rect x="13.333" y="13.3334" width="2.22222" height="2.22222" fill="white"/>
<rect x="13.333" y="15.5555" width="2.22222" height="2.22222" fill="white"/>
<rect x="11.1113" y="15.5555" width="2.22222" height="2.22222" fill="white"/>
<rect x="11.1113" y="13.3334" width="2.22222" height="2.22222" fill="white"/>
<rect x="8.88867" y="13.3334" width="2.22222" height="2.22222" fill="white"/>
<rect x="6.66699" y="13.3334" width="2.22222" height="2.22222" fill="white"/>
<rect x="8.88867" y="8.88892" width="2.22222" height="2.22222" fill="white"/>
<rect x="8.88867" y="11.1111" width="2.22222" height="2.22222" fill="white"/>
<rect x="13.333" y="17.7778" width="2.22222" height="2.22222" fill="white"/>
<rect x="15.5557" y="17.7778" width="2.22222" height="2.22222" fill="white"/>
<rect x="15.5557" y="15.5555" width="2.22222" height="2.22222" fill="white"/>
<rect x="17.7773" y="6.66663" width="2.22222" height="2.22222" fill="white"/>
</svg>
